<svg xmlns="http://www.w3.org/2000/svg" xmlns:xlink="http://www.w3.org/1999/xlink" width="500" zoomAndPan="magnify" viewBox="0 0 375 374.999991" height="500" preserveAspectRatio="xMidYMid meet" version="1.0"><defs><clipPath id="b0e652572e"><path d="M 153 60.070312 L 167 60.070312 L 167 100 L 153 100 Z M 153 60.070312 " clip-rule="nonzero"/></clipPath><clipPath id="9e76b7a5f9"><path d="M 60.070312 153 L 100 153 L 100 167 L 60.070312 167 Z M 60.070312 153 " clip-rule="nonzero"/></clipPath></defs><path fill="#000000" d="M 301.476562 126.589844 C 301.492188 123.054688 301.160156 119.546875 300.484375 116.074219 C 299.808594 112.601562 298.800781 109.230469 297.457031 105.957031 C 296.117188 102.683594 294.46875 99.570312 292.515625 96.621094 C 290.558594 93.671875 288.335938 90.941406 285.84375 88.433594 C 284.570312 87.21875 283.246094 86.070312 281.863281 84.984375 C 280.480469 83.898438 279.050781 82.878906 277.570312 81.929688 C 276.09375 80.976562 274.574219 80.101562 273.011719 79.296875 C 271.449219 78.488281 269.851562 77.761719 268.21875 77.109375 C 266.585938 76.453125 264.925781 75.878906 263.242188 75.386719 C 261.554688 74.890625 259.847656 74.476562 258.121094 74.144531 C 256.394531 73.8125 254.65625 73.5625 252.910156 73.394531 C 251.160156 73.226562 249.40625 73.144531 247.648438 73.144531 C 245.890625 73.144531 244.136719 73.226562 242.386719 73.394531 C 240.636719 73.5625 238.898438 73.8125 237.171875 74.144531 C 235.445312 74.476562 233.738281 74.890625 232.050781 75.386719 C 230.367188 75.878906 228.707031 76.453125 227.074219 77.109375 C 225.441406 77.761719 223.847656 78.488281 222.285156 79.296875 C 220.722656 80.101562 219.199219 80.976562 217.722656 81.929688 C 216.242188 82.878906 214.8125 83.898438 213.429688 84.984375 C 212.046875 86.070312 210.722656 87.21875 209.449219 88.433594 L 190.890625 106.984375 C 190.601562 107.289062 190.34375 107.617188 190.121094 107.972656 C 189.894531 108.324219 189.707031 108.695312 189.554688 109.085938 C 189.402344 109.476562 189.289062 109.875 189.214844 110.289062 C 189.136719 110.699219 189.101562 111.113281 189.109375 111.53125 C 189.113281 111.953125 189.160156 112.367188 189.246094 112.777344 C 189.332031 113.183594 189.453125 113.582031 189.617188 113.96875 C 189.78125 114.355469 189.976562 114.722656 190.210938 115.066406 C 190.445312 115.414062 190.710938 115.738281 191.003906 116.035156 C 191.300781 116.328125 191.621094 116.59375 191.96875 116.828125 C 192.316406 117.0625 192.683594 117.261719 193.070312 117.421875 C 193.453125 117.585938 193.851562 117.710938 194.261719 117.796875 C 194.671875 117.882812 195.085938 117.925781 195.503906 117.933594 C 195.921875 117.9375 196.339844 117.902344 196.75 117.828125 C 197.164062 117.753906 197.5625 117.640625 197.953125 117.488281 C 198.34375 117.335938 198.714844 117.148438 199.066406 116.921875 C 199.421875 116.699219 199.75 116.441406 200.054688 116.152344 L 218.613281 97.597656 C 219.5625 96.652344 220.558594 95.75 221.597656 94.902344 C 222.636719 94.050781 223.714844 93.253906 224.835938 92.507812 C 225.953125 91.765625 227.105469 91.074219 228.289062 90.445312 C 229.476562 89.8125 230.6875 89.242188 231.929688 88.726562 C 233.171875 88.214844 234.433594 87.765625 235.722656 87.375 C 237.007812 86.988281 238.308594 86.664062 239.625 86.402344 C 240.945312 86.140625 242.269531 85.945312 243.609375 85.816406 C 244.945312 85.6875 246.285156 85.621094 247.628906 85.621094 C 248.972656 85.625 250.3125 85.691406 251.648438 85.824219 C 252.984375 85.957031 254.3125 86.152344 255.628906 86.417969 C 256.945312 86.679688 258.246094 87.007812 259.53125 87.398438 C 260.816406 87.785156 262.078125 88.238281 263.320312 88.753906 C 264.5625 89.269531 265.773438 89.84375 266.957031 90.476562 C 268.144531 91.109375 269.292969 91.800781 270.410156 92.546875 C 271.527344 93.292969 272.605469 94.09375 273.640625 94.945312 C 274.679688 95.796875 275.675781 96.699219 276.625 97.648438 C 277.574219 98.597656 278.476562 99.589844 279.328125 100.628906 C 280.179688 101.667969 280.980469 102.746094 281.726562 103.863281 C 282.472656 104.976562 283.160156 106.128906 283.796875 107.3125 C 284.429688 108.496094 285.003906 109.710938 285.515625 110.949219 C 286.03125 112.191406 286.484375 113.453125 286.875 114.738281 C 287.265625 116.023438 287.59375 117.324219 287.855469 118.644531 C 288.117188 119.960938 288.316406 121.289062 288.449219 122.625 C 288.582031 123.960938 288.648438 125.300781 288.648438 126.644531 C 288.648438 127.988281 288.585938 129.328125 288.453125 130.664062 C 288.324219 132 288.128906 133.328125 287.867188 134.644531 C 287.609375 135.964844 287.28125 137.265625 286.894531 138.550781 C 286.507812 139.835938 286.054688 141.101562 285.542969 142.339844 C 285.03125 143.582031 284.457031 144.796875 283.828125 145.980469 C 283.195312 147.167969 282.507812 148.320312 281.761719 149.4375 C 281.019531 150.554688 280.222656 151.632812 279.371094 152.671875 C 278.519531 153.710938 277.621094 154.707031 276.671875 155.660156 L 229.613281 202.726562 C 228.660156 203.675781 227.664062 204.574219 226.625 205.425781 C 225.582031 206.277344 224.503906 207.078125 223.386719 207.824219 C 222.269531 208.566406 221.117188 209.257812 219.929688 209.890625 C 218.742188 210.523438 217.53125 211.097656 216.285156 211.609375 C 215.042969 212.125 213.78125 212.574219 212.492188 212.964844 C 211.207031 213.355469 209.90625 213.679688 208.585938 213.941406 C 207.269531 214.203125 205.941406 214.398438 204.601562 214.53125 C 203.265625 214.664062 201.921875 214.730469 200.578125 214.730469 C 199.234375 214.730469 197.894531 214.664062 196.554688 214.53125 C 195.21875 214.398438 193.890625 214.203125 192.570312 213.941406 C 191.253906 213.679688 189.949219 213.355469 188.664062 212.964844 C 187.378906 212.574219 186.113281 212.125 184.871094 211.609375 C 183.628906 211.097656 182.414062 210.523438 181.230469 209.890625 C 180.042969 209.257812 178.890625 208.566406 177.773438 207.824219 C 176.652344 207.078125 175.574219 206.277344 174.535156 205.425781 C 173.496094 204.574219 172.5 203.675781 171.546875 202.726562 C 167.5 198.679688 164.414062 194 162.289062 188.6875 C 162.132812 188.292969 161.933594 187.917969 161.703125 187.5625 C 161.46875 187.207031 161.203125 186.875 160.90625 186.574219 C 160.605469 186.269531 160.28125 185.996094 159.929688 185.757812 C 159.578125 185.519531 159.207031 185.316406 158.816406 185.148438 C 158.425781 184.980469 158.023438 184.855469 157.605469 184.769531 C 157.1875 184.679688 156.769531 184.636719 156.34375 184.632812 C 155.917969 184.628906 155.496094 184.664062 155.078125 184.742188 C 154.660156 184.824219 154.253906 184.941406 153.859375 185.101562 C 153.464844 185.257812 153.089844 185.453125 152.734375 185.6875 C 152.375 185.921875 152.046875 186.183594 151.742188 186.484375 C 151.4375 186.78125 151.167969 187.105469 150.925781 187.457031 C 150.6875 187.808594 150.484375 188.179688 150.316406 188.570312 C 150.148438 188.960938 150.023438 189.363281 149.933594 189.78125 C 149.847656 190.195312 149.800781 190.617188 149.796875 191.042969 C 149.792969 191.46875 149.828125 191.890625 149.90625 192.308594 C 149.984375 192.726562 150.101562 193.132812 150.261719 193.527344 C 153.042969 200.480469 157.082031 206.605469 162.378906 211.894531 C 163.652344 213.105469 164.980469 214.253906 166.363281 215.339844 C 167.746094 216.421875 169.175781 217.441406 170.65625 218.386719 C 172.136719 219.335938 173.65625 220.210938 175.21875 221.015625 C 176.78125 221.820312 178.378906 222.546875 180.011719 223.199219 C 181.644531 223.851562 183.300781 224.425781 184.988281 224.917969 C 186.675781 225.414062 188.378906 225.828125 190.105469 226.160156 C 191.832031 226.488281 193.570312 226.738281 195.320312 226.90625 C 197.066406 227.074219 198.820312 227.15625 200.578125 227.15625 C 202.335938 227.15625 204.089844 227.074219 205.839844 226.90625 C 207.585938 226.738281 209.324219 226.488281 211.050781 226.160156 C 212.777344 225.828125 214.484375 225.414062 216.167969 224.917969 C 217.855469 224.425781 219.515625 223.851562 221.144531 223.199219 C 222.777344 222.546875 224.375 221.820312 225.9375 221.015625 C 227.5 220.210938 229.023438 219.335938 230.5 218.386719 C 231.980469 217.441406 233.410156 216.421875 234.792969 215.339844 C 236.175781 214.253906 237.503906 213.105469 238.777344 211.894531 L 285.839844 164.832031 C 288.335938 162.316406 290.5625 159.578125 292.523438 156.625 C 294.480469 153.667969 296.128906 150.550781 297.46875 147.269531 C 298.8125 143.988281 299.820312 140.609375 300.496094 137.128906 C 301.167969 133.648438 301.496094 130.136719 301.476562 126.589844 Z M 301.476562 126.589844 " fill-opacity="1" fill-rule="nonzero"/><path fill="#000000" d="M 72.832031 247.644531 C 72.8125 251.1875 73.140625 254.695312 73.8125 258.167969 C 74.484375 261.644531 75.492188 265.019531 76.828125 268.296875 C 78.167969 271.574219 79.8125 274.691406 81.765625 277.644531 C 83.71875 280.59375 85.941406 283.328125 88.429688 285.84375 C 89.691406 287.082031 91.007812 288.253906 92.378906 289.363281 C 93.753906 290.472656 95.175781 291.511719 96.648438 292.480469 C 98.125 293.453125 99.640625 294.351562 101.203125 295.171875 C 102.761719 295.996094 104.359375 296.742188 105.996094 297.410156 C 107.628906 298.078125 109.289062 298.664062 110.980469 299.171875 C 112.671875 299.679688 114.382812 300.101562 116.113281 300.441406 C 117.847656 300.785156 119.589844 301.039062 121.347656 301.210938 C 123.101562 301.382812 124.863281 301.46875 126.628906 301.46875 C 128.394531 301.46875 130.15625 301.382812 131.910156 301.210938 C 133.667969 301.039062 135.410156 300.785156 137.144531 300.441406 C 138.875 300.101562 140.585938 299.679688 142.277344 299.171875 C 143.96875 298.664062 145.628906 298.078125 147.261719 297.410156 C 148.898438 296.742188 150.496094 295.996094 152.054688 295.171875 C 153.617188 294.351562 155.132812 293.453125 156.609375 292.480469 C 158.082031 291.511719 159.503906 290.472656 160.878906 289.363281 C 162.25 288.253906 163.566406 287.082031 164.828125 285.84375 L 183.453125 267.222656 C 183.742188 266.917969 183.996094 266.589844 184.21875 266.238281 C 184.445312 265.882812 184.632812 265.511719 184.785156 265.121094 C 184.9375 264.734375 185.050781 264.332031 185.125 263.921875 C 185.199219 263.511719 185.230469 263.09375 185.226562 262.675781 C 185.222656 262.257812 185.175781 261.84375 185.089844 261.4375 C 185.003906 261.027344 184.878906 260.628906 184.71875 260.246094 C 184.554688 259.859375 184.355469 259.492188 184.121094 259.144531 C 183.890625 258.800781 183.625 258.476562 183.328125 258.183594 C 183.035156 257.886719 182.710938 257.621094 182.367188 257.386719 C 182.019531 257.15625 181.652344 256.957031 181.269531 256.792969 C 180.882812 256.632812 180.484375 256.507812 180.078125 256.421875 C 179.667969 256.335938 179.253906 256.289062 178.835938 256.285156 C 178.417969 256.277344 178.003906 256.3125 177.589844 256.386719 C 177.179688 256.460938 176.78125 256.574219 176.390625 256.726562 C 176 256.875 175.628906 257.066406 175.277344 257.289062 C 174.921875 257.511719 174.59375 257.765625 174.289062 258.054688 L 155.664062 276.675781 C 154.710938 277.625 153.71875 278.523438 152.679688 279.375 C 151.636719 280.226562 150.558594 281.023438 149.441406 281.769531 C 148.324219 282.515625 147.171875 283.203125 145.988281 283.835938 C 144.800781 284.464844 143.585938 285.039062 142.34375 285.550781 C 141.105469 286.0625 139.839844 286.515625 138.554688 286.902344 C 137.269531 287.292969 135.964844 287.617188 134.648438 287.878906 C 133.332031 288.140625 132.003906 288.335938 130.667969 288.464844 C 129.328125 288.597656 127.988281 288.660156 126.644531 288.660156 C 125.300781 288.660156 123.960938 288.59375 122.625 288.460938 C 121.289062 288.328125 119.960938 288.128906 118.644531 287.867188 C 117.328125 287.605469 116.023438 287.277344 114.738281 286.886719 C 113.453125 286.496094 112.191406 286.042969 110.949219 285.53125 C 109.710938 285.015625 108.496094 284.441406 107.3125 283.808594 C 106.128906 283.171875 104.976562 282.484375 103.859375 281.738281 C 102.742188 280.992188 101.664062 280.191406 100.628906 279.339844 C 99.589844 278.488281 98.59375 277.585938 97.644531 276.636719 C 96.695312 275.683594 95.792969 274.691406 94.941406 273.652344 C 94.089844 272.613281 93.289062 271.535156 92.542969 270.421875 C 91.796875 269.304688 91.105469 268.152344 90.472656 266.96875 C 89.839844 265.785156 89.265625 264.570312 88.75 263.328125 C 88.234375 262.089844 87.785156 260.824219 87.394531 259.539062 C 87.003906 258.253906 86.675781 256.953125 86.414062 255.636719 C 86.152344 254.320312 85.953125 252.992188 85.820312 251.65625 C 85.6875 250.316406 85.621094 248.976562 85.621094 247.632812 C 85.621094 246.289062 85.683594 244.949219 85.816406 243.613281 C 85.945312 242.277344 86.140625 240.949219 86.402344 239.632812 C 86.664062 238.3125 86.988281 237.011719 87.375 235.726562 C 87.765625 234.441406 88.214844 233.175781 88.726562 231.933594 C 89.242188 230.691406 89.8125 229.480469 90.445312 228.292969 C 91.078125 227.109375 91.765625 225.957031 92.511719 224.839844 C 93.253906 223.722656 94.054688 222.640625 94.90625 221.601562 C 95.753906 220.5625 96.65625 219.566406 97.605469 218.617188 L 144.664062 171.550781 C 145.265625 170.953125 145.886719 170.375 146.523438 169.816406 C 147.160156 169.253906 147.8125 168.714844 148.484375 168.199219 C 149.152344 167.679688 149.839844 167.179688 150.542969 166.703125 C 151.242188 166.226562 151.957031 165.773438 152.6875 165.339844 C 153.417969 164.90625 154.160156 164.496094 154.914062 164.109375 C 155.667969 163.722656 156.433594 163.363281 157.210938 163.023438 C 157.988281 162.683594 158.773438 162.367188 159.570312 162.078125 C 160.367188 161.785156 161.171875 161.519531 161.984375 161.277344 C 162.796875 161.039062 163.617188 160.820312 164.441406 160.632812 C 165.269531 160.441406 166.101562 160.277344 166.9375 160.136719 C 167.773438 159.996094 168.613281 159.882812 169.457031 159.796875 C 170.300781 159.710938 171.144531 159.648438 171.992188 159.613281 C 172.839844 159.578125 173.6875 159.570312 174.535156 159.585938 C 175.382812 159.605469 176.230469 159.648438 177.074219 159.71875 C 177.917969 159.785156 178.761719 159.882812 179.601562 160.003906 C 180.441406 160.125 181.273438 160.273438 182.105469 160.445312 C 182.933594 160.617188 183.757812 160.816406 184.574219 161.042969 C 185.394531 161.265625 186.203125 161.515625 187.007812 161.789062 C 187.808594 162.0625 188.601562 162.359375 189.386719 162.683594 C 190.167969 163.007812 190.941406 163.351562 191.707031 163.722656 C 192.46875 164.09375 193.21875 164.488281 193.957031 164.90625 C 194.695312 165.324219 195.417969 165.761719 196.128906 166.222656 C 196.84375 166.6875 197.539062 167.167969 198.21875 167.675781 C 198.902344 168.179688 199.566406 168.703125 200.214844 169.25 C 200.863281 169.796875 201.496094 170.363281 202.109375 170.945312 C 202.722656 171.53125 203.316406 172.136719 203.894531 172.757812 C 204.46875 173.378906 205.027344 174.015625 205.566406 174.671875 C 206.101562 175.328125 206.617188 176 207.113281 176.6875 C 207.609375 177.378906 208.082031 178.078125 208.535156 178.796875 C 208.988281 179.515625 209.417969 180.246094 209.824219 180.988281 C 210.230469 181.730469 210.617188 182.488281 210.976562 183.253906 C 211.335938 184.023438 211.671875 184.800781 211.984375 185.589844 C 212.144531 185.984375 212.339844 186.359375 212.574219 186.71875 C 212.804688 187.074219 213.070312 187.402344 213.367188 187.707031 C 213.667969 188.011719 213.992188 188.285156 214.34375 188.527344 C 214.695312 188.765625 215.066406 188.96875 215.457031 189.136719 C 215.851562 189.304688 216.253906 189.433594 216.671875 189.519531 C 217.085938 189.605469 217.507812 189.652344 217.933594 189.65625 C 218.359375 189.660156 218.78125 189.625 219.203125 189.546875 C 219.621094 189.464844 220.027344 189.347656 220.421875 189.1875 C 220.816406 189.03125 221.195312 188.832031 221.550781 188.601562 C 221.90625 188.367188 222.238281 188.101562 222.539062 187.804688 C 222.84375 187.503906 223.117188 187.179688 223.355469 186.828125 C 223.597656 186.476562 223.800781 186.105469 223.96875 185.710938 C 224.132812 185.320312 224.261719 184.917969 224.347656 184.5 C 224.433594 184.082031 224.480469 183.660156 224.484375 183.234375 C 224.488281 182.808594 224.453125 182.386719 224.371094 181.96875 C 224.292969 181.550781 224.171875 181.144531 224.015625 180.75 C 223.601562 179.710938 223.160156 178.691406 222.683594 177.683594 C 222.210938 176.675781 221.703125 175.679688 221.167969 174.703125 C 220.628906 173.726562 220.066406 172.769531 219.46875 171.824219 C 218.875 170.882812 218.25 169.960938 217.597656 169.058594 C 216.945312 168.152344 216.265625 167.273438 215.558594 166.410156 C 214.851562 165.546875 214.117188 164.710938 213.359375 163.894531 C 212.601562 163.078125 211.816406 162.285156 211.007812 161.515625 C 210.203125 160.75 209.371094 160.007812 208.515625 159.289062 C 207.664062 158.574219 206.789062 157.882812 205.894531 157.222656 C 204.996094 156.558594 204.082031 155.925781 203.144531 155.316406 C 202.210938 154.710938 201.257812 154.136719 200.285156 153.585938 C 199.316406 153.039062 198.328125 152.523438 197.324219 152.039062 C 196.324219 151.550781 195.304688 151.097656 194.273438 150.671875 C 193.242188 150.25 192.199219 149.859375 191.144531 149.5 C 190.089844 149.140625 189.027344 148.8125 187.949219 148.519531 C 186.875 148.226562 185.792969 147.96875 184.699219 147.742188 C 183.609375 147.515625 182.511719 147.320312 181.410156 147.164062 C 180.304688 147.003906 179.199219 146.878906 178.085938 146.789062 C 176.976562 146.699219 175.863281 146.644531 174.75 146.621094 C 173.636719 146.597656 172.523438 146.613281 171.410156 146.660156 C 170.292969 146.707031 169.183594 146.789062 168.074219 146.902344 C 166.96875 147.019531 165.863281 147.167969 164.761719 147.351562 C 163.664062 147.535156 162.570312 147.753906 161.484375 148.003906 C 160.398438 148.257812 159.324219 148.542969 158.253906 148.859375 C 157.1875 149.175781 156.128906 149.527344 155.082031 149.910156 C 154.035156 150.292969 153.003906 150.710938 151.980469 151.15625 C 150.960938 151.601562 149.953125 152.082031 148.960938 152.589844 C 147.972656 153.097656 146.996094 153.636719 146.039062 154.207031 C 145.082031 154.777344 144.140625 155.375 143.21875 156.003906 C 142.296875 156.628906 141.398438 157.285156 140.515625 157.96875 C 139.636719 158.652344 138.777344 159.359375 137.941406 160.097656 C 137.101562 160.832031 136.289062 161.59375 135.5 162.378906 L 88.4375 209.445312 C 85.945312 211.960938 83.722656 214.695312 81.769531 217.648438 C 79.816406 220.601562 78.171875 223.714844 76.832031 226.992188 C 75.492188 230.269531 74.488281 233.648438 73.8125 237.121094 C 73.140625 240.597656 72.8125 244.105469 72.832031 247.644531 Z M 72.832031 247.644531 " fill-opacity="1" fill-rule="nonzero"/><path fill="#000000" d="M 131.210938 122.046875 L 97.597656 88.433594 C 97.292969 88.140625 96.964844 87.882812 96.613281 87.652344 C 96.257812 87.425781 95.886719 87.234375 95.496094 87.078125 C 95.105469 86.921875 94.703125 86.804688 94.289062 86.726562 C 93.875 86.648438 93.457031 86.613281 93.035156 86.613281 C 92.617188 86.617188 92.199219 86.664062 91.785156 86.746094 C 91.375 86.832031 90.972656 86.957031 90.585938 87.121094 C 90.199219 87.28125 89.828125 87.480469 89.480469 87.714844 C 89.128906 87.949219 88.804688 88.214844 88.507812 88.515625 C 88.210938 88.8125 87.945312 89.136719 87.710938 89.484375 C 87.476562 89.832031 87.277344 90.203125 87.113281 90.589844 C 86.953125 90.980469 86.828125 91.378906 86.742188 91.792969 C 86.65625 92.203125 86.613281 92.621094 86.609375 93.042969 C 86.605469 93.460938 86.644531 93.878906 86.722656 94.292969 C 86.796875 94.707031 86.914062 95.109375 87.070312 95.5 C 87.226562 95.890625 87.417969 96.265625 87.648438 96.617188 C 87.875 96.972656 88.136719 97.300781 88.429688 97.601562 L 122.046875 131.210938 C 122.351562 131.507812 122.679688 131.769531 123.035156 132.003906 C 123.390625 132.234375 123.765625 132.429688 124.15625 132.589844 C 124.550781 132.75 124.957031 132.871094 125.371094 132.953125 C 125.789062 133.035156 126.207031 133.074219 126.632812 133.074219 C 127.054688 133.074219 127.476562 133.035156 127.890625 132.953125 C 128.308594 132.871094 128.714844 132.75 129.105469 132.589844 C 129.5 132.429688 129.871094 132.234375 130.226562 132.003906 C 130.582031 131.769531 130.914062 131.507812 131.214844 131.210938 C 131.515625 130.910156 131.785156 130.582031 132.019531 130.226562 C 132.257812 129.875 132.457031 129.5 132.617188 129.109375 C 132.78125 128.714844 132.902344 128.308594 132.984375 127.890625 C 133.070312 127.476562 133.109375 127.054688 133.109375 126.628906 C 133.109375 126.203125 133.066406 125.78125 132.984375 125.363281 C 132.902344 124.949219 132.777344 124.542969 132.617188 124.148438 C 132.453125 123.757812 132.253906 123.382812 132.015625 123.03125 C 131.78125 122.675781 131.511719 122.347656 131.210938 122.046875 Z M 131.210938 122.046875 " fill-opacity="1" fill-rule="nonzero"/><g clip-path="url(#b0e652572e)"><path fill="#000000" d="M 166.726562 93.015625 L 166.726562 66.121094 C 166.726562 65.695312 166.683594 65.273438 166.601562 64.855469 C 166.519531 64.4375 166.394531 64.035156 166.234375 63.640625 C 166.070312 63.246094 165.871094 62.875 165.632812 62.519531 C 165.398438 62.164062 165.128906 61.835938 164.828125 61.535156 C 164.527344 61.234375 164.199219 60.96875 163.84375 60.730469 C 163.492188 60.492188 163.117188 60.292969 162.722656 60.132812 C 162.332031 59.96875 161.925781 59.84375 161.507812 59.761719 C 161.089844 59.679688 160.667969 59.636719 160.242188 59.636719 C 159.816406 59.636719 159.394531 59.679688 158.980469 59.761719 C 158.5625 59.84375 158.15625 59.96875 157.761719 60.132812 C 157.371094 60.292969 156.996094 60.492188 156.640625 60.730469 C 156.289062 60.96875 155.960938 61.234375 155.660156 61.535156 C 155.359375 61.835938 155.089844 62.164062 154.851562 62.519531 C 154.617188 62.875 154.417969 63.246094 154.253906 63.640625 C 154.089844 64.035156 153.96875 64.4375 153.886719 64.855469 C 153.800781 65.273438 153.761719 65.695312 153.761719 66.121094 L 153.761719 93.015625 C 153.761719 93.441406 153.800781 93.863281 153.886719 94.28125 C 153.96875 94.699219 154.089844 95.101562 154.253906 95.496094 C 154.417969 95.890625 154.617188 96.261719 154.851562 96.617188 C 155.089844 96.972656 155.359375 97.296875 155.660156 97.597656 C 155.960938 97.902344 156.289062 98.167969 156.640625 98.40625 C 156.996094 98.640625 157.371094 98.84375 157.761719 99.003906 C 158.15625 99.167969 158.5625 99.289062 158.980469 99.375 C 159.394531 99.457031 159.816406 99.5 160.242188 99.5 C 160.667969 99.5 161.089844 99.457031 161.507812 99.375 C 161.925781 99.289062 162.332031 99.167969 162.722656 99.003906 C 163.117188 98.84375 163.492188 98.640625 163.84375 98.40625 C 164.199219 98.167969 164.527344 97.902344 164.828125 97.597656 C 165.128906 97.296875 165.398438 96.972656 165.632812 96.617188 C 165.871094 96.261719 166.070312 95.890625 166.234375 95.496094 C 166.394531 95.101562 166.519531 94.699219 166.601562 94.28125 C 166.683594 93.863281 166.726562 93.441406 166.726562 93.015625 Z M 166.726562 93.015625 " fill-opacity="1" fill-rule="nonzero"/></g><g clip-path="url(#9e76b7a5f9)"><path fill="#000000" d="M 66.121094 166.726562 L 93.015625 166.726562 C 93.441406 166.726562 93.863281 166.683594 94.28125 166.601562 C 94.699219 166.519531 95.101562 166.394531 95.496094 166.234375 C 95.890625 166.070312 96.261719 165.871094 96.617188 165.632812 C 96.972656 165.398438 97.296875 165.128906 97.597656 164.828125 C 97.902344 164.527344 98.167969 164.199219 98.40625 163.84375 C 98.640625 163.492188 98.84375 163.117188 99.003906 162.722656 C 99.167969 162.332031 99.289062 161.925781 99.375 161.507812 C 99.457031 161.089844 99.5 160.667969 99.5 160.242188 C 99.5 159.816406 99.457031 159.394531 99.375 158.980469 C 99.289062 158.5625 99.167969 158.15625 99.003906 157.761719 C 98.84375 157.371094 98.640625 156.996094 98.40625 156.640625 C 98.167969 156.289062 97.902344 155.960938 97.597656 155.660156 C 97.296875 155.359375 96.972656 155.089844 96.617188 154.851562 C 96.261719 154.617188 95.890625 154.417969 95.496094 154.253906 C 95.101562 154.089844 94.699219 153.96875 94.28125 153.886719 C 93.863281 153.800781 93.441406 153.761719 93.015625 153.761719 L 66.121094 153.761719 C 65.695312 153.761719 65.273438 153.800781 64.855469 153.886719 C 64.4375 153.96875 64.035156 154.089844 63.640625 154.253906 C 63.246094 154.417969 62.875 154.617188 62.519531 154.851562 C 62.164062 155.089844 61.835938 155.359375 61.535156 155.660156 C 61.234375 155.960938 60.96875 156.289062 60.730469 156.640625 C 60.492188 156.996094 60.292969 157.371094 60.132812 157.761719 C 59.96875 158.15625 59.84375 158.5625 59.761719 158.980469 C 59.679688 159.394531 59.636719 159.816406 59.636719 160.242188 C 59.636719 160.667969 59.679688 161.089844 59.761719 161.507812 C 59.84375 161.925781 59.96875 162.332031 60.132812 162.722656 C 60.292969 163.117188 60.492188 163.492188 60.730469 163.84375 C 60.96875 164.199219 61.234375 164.527344 61.535156 164.828125 C 61.835938 165.128906 62.164062 165.398438 62.519531 165.632812 C 62.875 165.871094 63.246094 166.070312 63.640625 166.234375 C 64.035156 166.394531 64.4375 166.519531 64.855469 166.601562 C 65.273438 166.683594 65.695312 166.726562 66.121094 166.726562 Z M 66.121094 166.726562 " fill-opacity="1" fill-rule="nonzero"/></g><path fill="#000000" d="M 252.226562 243.066406 C 251.921875 242.78125 251.59375 242.53125 251.242188 242.308594 C 250.890625 242.089844 250.519531 241.902344 250.128906 241.753906 C 249.742188 241.605469 249.34375 241.496094 248.933594 241.421875 C 248.523438 241.351562 248.109375 241.320312 247.695312 241.324219 C 247.277344 241.332031 246.867188 241.378906 246.460938 241.46875 C 246.050781 241.554688 245.65625 241.679688 245.273438 241.839844 C 244.890625 242.003906 244.527344 242.199219 244.183594 242.433594 C 243.835938 242.667969 243.519531 242.929688 243.222656 243.222656 C 242.929688 243.519531 242.667969 243.835938 242.433594 244.183594 C 242.199219 244.527344 242.003906 244.890625 241.839844 245.273438 C 241.679688 245.65625 241.554688 246.050781 241.46875 246.460938 C 241.378906 246.867188 241.332031 247.277344 241.324219 247.695312 C 241.320312 248.109375 241.351562 248.523438 241.421875 248.933594 C 241.496094 249.34375 241.605469 249.742188 241.753906 250.128906 C 241.902344 250.519531 242.089844 250.890625 242.308594 251.242188 C 242.53125 251.59375 242.78125 251.921875 243.066406 252.226562 L 276.679688 285.839844 C 276.984375 286.132812 277.316406 286.394531 277.671875 286.621094 C 278.027344 286.851562 278.402344 287.042969 278.792969 287.199219 C 279.183594 287.359375 279.589844 287.476562 280.003906 287.554688 C 280.417969 287.636719 280.839844 287.675781 281.261719 287.675781 C 281.683594 287.675781 282.101562 287.636719 282.515625 287.554688 C 282.933594 287.476562 283.335938 287.359375 283.726562 287.199219 C 284.121094 287.042969 284.496094 286.851562 284.851562 286.621094 C 285.207031 286.394531 285.535156 286.132812 285.84375 285.839844 C 286.140625 285.539062 286.410156 285.210938 286.648438 284.859375 C 286.882812 284.503906 287.082031 284.132812 287.246094 283.738281 C 287.40625 283.347656 287.53125 282.941406 287.613281 282.523438 C 287.695312 282.105469 287.738281 281.683594 287.738281 281.257812 C 287.738281 280.835938 287.695312 280.414062 287.613281 279.996094 C 287.53125 279.578125 287.40625 279.171875 287.246094 278.78125 C 287.082031 278.386719 286.882812 278.015625 286.648438 277.660156 C 286.410156 277.308594 286.140625 276.980469 285.84375 276.679688 Z M 252.226562 243.066406 " fill-opacity="1" fill-rule="nonzero"/><path fill="#000000" d="M 308.15625 207.550781 L 281.261719 207.550781 C 280.835938 207.550781 280.414062 207.589844 279.996094 207.671875 C 279.578125 207.757812 279.171875 207.878906 278.78125 208.042969 C 278.386719 208.207031 278.011719 208.40625 277.660156 208.640625 C 277.304688 208.878906 276.976562 209.148438 276.675781 209.449219 C 276.375 209.75 276.105469 210.078125 275.871094 210.429688 C 275.632812 210.785156 275.433594 211.15625 275.269531 211.550781 C 275.109375 211.945312 274.984375 212.351562 274.902344 212.765625 C 274.820312 213.183594 274.777344 213.605469 274.777344 214.03125 C 274.777344 214.457031 274.820312 214.878906 274.902344 215.296875 C 274.984375 215.714844 275.109375 216.121094 275.269531 216.511719 C 275.433594 216.90625 275.632812 217.28125 275.871094 217.632812 C 276.105469 217.988281 276.375 218.316406 276.675781 218.617188 C 276.976562 218.917969 277.304688 219.1875 277.660156 219.421875 C 278.011719 219.660156 278.386719 219.859375 278.78125 220.023438 C 279.171875 220.183594 279.578125 220.308594 279.996094 220.390625 C 280.414062 220.472656 280.835938 220.515625 281.261719 220.515625 L 308.15625 220.515625 C 308.582031 220.515625 309.003906 220.472656 309.417969 220.390625 C 309.835938 220.308594 310.242188 220.183594 310.636719 220.023438 C 311.027344 219.859375 311.402344 219.660156 311.757812 219.421875 C 312.109375 219.1875 312.4375 218.917969 312.738281 218.617188 C 313.039062 218.316406 313.308594 217.988281 313.546875 217.632812 C 313.78125 217.28125 313.980469 216.90625 314.144531 216.511719 C 314.308594 216.121094 314.429688 215.714844 314.511719 215.296875 C 314.597656 214.878906 314.636719 214.457031 314.636719 214.03125 C 314.636719 213.605469 314.597656 213.183594 314.511719 212.765625 C 314.429688 212.351562 314.308594 211.945312 314.144531 211.550781 C 313.980469 211.15625 313.78125 210.785156 313.546875 210.429688 C 313.308594 210.078125 313.039062 209.75 312.738281 209.449219 C 312.4375 209.148438 312.109375 208.878906 311.757812 208.640625 C 311.402344 208.40625 311.027344 208.207031 310.636719 208.042969 C 310.242188 207.878906 309.835938 207.757812 309.417969 207.671875 C 309.003906 207.589844 308.582031 207.550781 308.15625 207.550781 Z M 308.15625 207.550781 " fill-opacity="1" fill-rule="nonzero"/><path fill="#000000" d="M 220.515625 308.15625 L 220.515625 281.261719 C 220.515625 280.835938 220.472656 280.414062 220.390625 279.996094 C 220.308594 279.578125 220.183594 279.171875 220.023438 278.78125 C 219.859375 278.386719 219.660156 278.011719 219.421875 277.660156 C 219.1875 277.304688 218.917969 276.976562 218.617188 276.675781 C 218.316406 276.375 217.988281 276.105469 217.632812 275.871094 C 217.28125 275.632812 216.90625 275.433594 216.511719 275.269531 C 216.121094 275.109375 215.714844 274.984375 215.296875 274.902344 C 214.878906 274.820312 214.457031 274.777344 214.03125 274.777344 C 213.605469 274.777344 213.183594 274.820312 212.765625 274.902344 C 212.351562 274.984375 211.945312 275.109375 211.550781 275.269531 C 211.15625 275.433594 210.785156 275.632812 210.429688 275.871094 C 210.078125 276.105469 209.75 276.375 209.449219 276.675781 C 209.148438 276.976562 208.878906 277.304688 208.640625 277.660156 C 208.40625 278.011719 208.207031 278.386719 208.042969 278.78125 C 207.878906 279.171875 207.757812 279.578125 207.671875 279.996094 C 207.589844 280.414062 207.550781 280.835938 207.550781 281.261719 L 207.550781 308.15625 C 207.550781 308.582031 207.589844 309.003906 207.671875 309.417969 C 207.757812 309.835938 207.878906 310.242188 208.042969 310.636719 C 208.207031 311.027344 208.40625 311.402344 208.640625 311.757812 C 208.878906 312.109375 209.148438 312.4375 209.449219 312.738281 C 209.75 313.039062 210.078125 313.308594 210.429688 313.546875 C 210.785156 313.78125 211.15625 313.980469 211.550781 314.144531 C 211.945312 314.308594 212.351562 314.429688 212.765625 314.511719 C 213.183594 314.597656 213.605469 314.636719 214.03125 314.636719 C 214.457031 314.636719 214.878906 314.597656 215.296875 314.511719 C 215.714844 314.429688 216.121094 314.308594 216.511719 314.144531 C 216.90625 313.980469 217.28125 313.78125 217.632812 313.546875 C 217.988281 313.308594 218.316406 313.039062 218.617188 312.738281 C 218.917969 312.4375 219.1875 312.109375 219.421875 311.757812 C 219.660156 311.402344 219.859375 311.027344 220.023438 310.636719 C 220.183594 310.242188 220.308594 309.835938 220.390625 309.417969 C 220.472656 309.003906 220.515625 308.582031 220.515625 308.15625 Z M 220.515625 308.15625 " fill-opacity="1" fill-rule="nonzero"/></svg>